<svg xmlns="http://www.w3.org/2000/svg" xmlns:xlink="http://www.w3.org/1999/xlink" version="1.1" style="enable-background:new 0 0 595.3 841.9;" xml:space="preserve" width="362" height="164"><rect id="backgroundrect" width="100%" height="100%" x="0" y="0" fill="none" stroke="none" class="selected" style=""/>


<g class="currentLayer" style=""><title>Layer 1</title><g id="svg_1" class="">
	<path d="M117.21428878307341,107.48570816516877 c0,32.5 -25,56.2 -58.3,56.2 c-33.2,0 -58.2,-23.7 -58.2,-56.2 c0,-32.1 25.2,-56.2 58.2,-56.2 C92.31428878307344,51.285708165168785 117.21428878307341,75.28570816516878 117.21428878307341,107.48570816516877 zM59.11428878307342,159.68570816516876 c15.5,0 24.2,-18.8 24.2,-52.2 c0,-33.2 -8.8,-52.1 -24.3,-52.1 c-15.7,0 -24.1,18.9 -24.1,52.1 C34.81428878307344,140.88570816516875 43.31428878307344,159.68570816516876 59.11428878307342,159.68570816516876 z" id="svg_2"/>
	<path d="M198.4142887830734,12.38570816516875 c-0.2,-0.1 -0.30000000000000016,-0.30000000000000016 -0.30000000000000016,-0.30000000000000016 c-0.1,-0.2 -0.1,-0.4 -0.1,-0.4 c0,-0.30000000000000016 0.2,-0.5 0.2,-0.5 c0.2,-0.30000000000000016 0.6000000000000003,-0.30000000000000016 0.6000000000000003,-0.30000000000000016 l42.4,-9.7 l0,141.1 c0,0 0,11.7 11.1,11.7 c0,0 0.2,0 0.4,0.1 c0,0 0.1,0.1 0.1,0.30000000000000016 c0,0 0,0.1 0,0.30000000000000016 c0,0 0,0.2 -0.2,0.30000000000000016 c0,0 -0.1,0.1 -0.30000000000000016,0.2 l-36.5,8.4 c-7.5,-2.5 -7.2,-16.2 -7.2,-16.2 c-8,8 -18.3,16.3 -35.5,16.3 c-26,0 -42.3,-21.5 -42.3,-51.7 c0,-35.3 22.3,-60.6 57.7,-60.6 c7.6,0 14.5,2 20.1,5.6 v-34.5 c0,-11.2 -9.9,-9.9 -9.9,-9.9 C198.61428878307345,12.485708165168774 198.4142887830734,12.38570816516875 198.4142887830734,12.38570816516875 zM165.11428878307345,104.08570816516874 c0,29.2 9.4,44.7 26,44.7 c6.5,0 12.5,-2.2 17.7,-6.6 v-68.3 c-1.9,-12.1 -8.1,-18 -16.6,-18 C175.31428878307344,55.985708165168774 165.11428878307345,73.58570816516874 165.11428878307345,104.08570816516874 z" id="svg_3"/>
	<path d="M299.9142887830734,100.58570816516874 c0,0 6,-2.1 13,-1.9 c0,0 5,-0.1 12,1.1 c0,0 1.1,0.2 2.1,0.30000000000000016 c0,-32 -5.4,-44.2 -17.1,-44.2 c-12.5,0 -19,12.1 -19.9,43.1 c0,0 0,2.2 0,4.2 c0,0.5 0,1.1 0.1,1.6 C290.0142887830734,104.88570816516875 295.11428878307345,101.98570816516877 299.9142887830734,100.58570816516874 zM290.31428878307344,108.68570816516876 c2.3,24 14.9,37.6 35,37.6 c12.8,0 23.5,-4.9 29.7,-10.2 c0,0 0.6000000000000003,-0.5 1.1,-0.7000000000000003 c0,0 0.30000000000000016,-0.1 0.6000000000000003,-0.1 c0,0 0.2,0 0.4,0.2 c0,0 0.1,0.1 0.1,0.4 c0,0 0,0.30000000000000016 -0.1,0.5 c0,0 0,0.1 -0.5,1 c-10,16.1 -25,26.1 -48.1,26.1 c-31.4,0 -51.7,-22.4 -51.7,-54.1 c0,-34.5 22.5,-58.2 54.8,-58.2 c30.1,0 47.7,22 47.7,49.4 l-0.1,3.5 c0,0 -1.3,2.2 -8.7,3.3 c0,0 -6.5,1.1 -20.7,-0.7000000000000003 c0,0 -7.5,-1.1 -12.5,-1.7000000000000002 c0,0 -5.6,-0.8 -11.5,-0.30000000000000016 c0,0 -5.7,0.30000000000000016 -10,1.8 C295.61428878307345,106.58570816516874 292.9142887830734,107.48570816516877 290.31428878307344,108.68570816516876 z" id="svg_4"/>
</g><path d="M413.3000030517578,-0.000006103515630684342 " id="svg_5" class=""/></g></svg>