<svg xmlns="http://www.w3.org/2000/svg" xmlns:xlink="http://www.w3.org/1999/xlink" version="1.1" style="enable-background:new 0 0 595.3 841.9;" xml:space="preserve" width="490" height="415"><rect id="backgroundrect" width="100%" height="100%" x="0" y="0" fill="none" stroke="none" class="" style=""/>
<style type="text/css">
	.st0{fill:#FFFFFF;}
</style>

<g class="currentLayer" style=""><title>Layer 1</title><g id="svg_1" class="">
	<path d="M393.6286271572113,243.22855925559998 c-8,44.2 -31.4,82.5 -64,109.7 c-32.6,27.3 -74.4,43.5 -119.4,43.5 c-12.7,0 -25.6,-1.3 -38.6,-4 c-44.8,-9.3 -82.3,-33.3 -108.5,-65.8 c-26.2,-32.6 -41.2,-73.7 -41.2,-117.3 c0,-13.5 1.4,-27.2 4.4,-41 C36.028627157211304,123.72855925559998 61.028627157211304,87.02855925559999 94.0286271572113,61.52855925559999 c33.1,-25.5 74.2,-39.9 116.3,-39.9 c30.5,0 61.4,7.5 90.1,23.8 c25.3,14.3 45.8,32.4 61.4,54.1 c15.6,21.7 26.3,46.9 32,75.5 l0,0 c0,0 0.1,0.4 0.30000000000000027,0.7000000000000005 c0.1,0.2 0.2,0.4 0.30000000000000027,0.5 c5.8,2.1 11.8,4.1 18.3,6.2 c-0.8,-5.3 -1.6,-10.4 -2.6,-15.4 c-9.5,-47.8 -35.3,-89.2 -71.1,-118.7 c-35.7,-29.4 -81.3,-46.9 -130.2,-46.9 c-13.1,0 -26.5,1.3 -40,3.9 c-49.9,9.7 -91.7,35.9 -121.1,71.8 c-29.4,35.9 -46.3,81.4 -46.3,129.7 c0,15 1.6,30.3 5,45.6 c10.6,47.6 36.9,87.9 72.5,116.3 c35.6,28.4 80.4,44.9 127.9,44.9 c12.9,0 25.9,-1.2 39.1,-3.7 c33.5,-6.4 62.3,-19.1 86.7,-37.6 c24.4,-18.6 44.4,-43.1 60.1,-73.4 c11.8,-22.8 18.4,-47.1 20.4,-72.8 l0,-0.1 c0,-0.1 0,-0.4 -0.1,-0.6000000000000005 c-5.3,-2.4 -10.8,-4.7 -16.3,-6.9 C395.9286271572113,226.92855925559996 395.1286271572113,235.0285592556 393.6286271572113,243.22855925559998 z" id="svg_2"/>
	<path d="M56.72862715721131,198.5285592556 c45.9,9.2 80.2,-7.8 107.6,-41 c12.8,-15.5 25.7,-30.3 44.2,-38.9 c24,-11 48.1,-11.7 72,0.9 c23.9,12.6 43.7,30.5 61.1,50.8 c6.8,7.9 14.1,10.4 23.7,11.6 c43.6,5.6 81.3,23 110,57.3 c4,4.8 7.5,10 10.5,15.4 c1.9,3.3 2.5,7.6 -1.3,10.5 c-3.1,2.3 -9.4,0.9 -11.7,-2.6 c-22.1,-33.6 -54.6,-51.5 -92.9,-59.7 c-14.3,-3.1 -29,-4.2 -43.6,-5.7 c-9.4,-1 -18.1,2.3 -26.1,7.1 c-11.1,6.5 -19.5,15.9 -27.8,25.6 c-25.2,29.5 -54.6,53.4 -92,65.7 c-33.5,11 -65.5,5.6 -95.3,-11.4 c-25.1,-14.4 -36.5,-37.8 -38.3,-66.2 C56.42862715721131,211.72855925559998 56.72862715721131,205.3285592556 56.72862715721131,198.5285592556 zM293.0286271572113,168.22855925559998 c0,-8.7 -6.7,-15.4 -15.3,-15.3 c-8.3,0.1 -14.9,6.7 -15,15.1 c0,8.6 6.7,15.4 15.3,15.3 C286.5286271572113,183.3285592556 293.0286271572113,176.72855925559998 293.0286271572113,168.22855925559998 z" id="svg_3"/>
	<path d="M56.72862715721131,198.5285592556 l0,0.1 c8.3,1.7000000000000002 16.3,2.5 23.9,2.5 c34.3,0 61.4,-16.3 83.8,-43.5 c12.8,-15.5 25.7,-30.3 44.2,-38.8 c11.9,-5.5 23.9,-8.4 35.8,-8.4 c12.1,0 24.1,3 36.1,9.3 c23.9,12.6 43.7,30.5 61.1,50.7 c6.8,8 14.2,10.4 23.8,11.7 c43.6,5.6 81.3,22.9 109.9,57.3 c4,4.8 7.5,10 10.5,15.4 c0.9,1.6 1.5,3.3 1.5,5 c0,1.9 -0.7000000000000005,3.8 -2.7,5.3 c-1,0.8 -2.4,1.1 -3.9,1.1 c-2.9,0 -6.2,-1.4 -7.7,-3.7 c-22.2,-33.7 -54.6,-51.5 -92.9,-59.8 c-14.3,-3.1 -29,-4.2 -43.6,-5.7 c-1.1,-0.1 -2.2,-0.2 -3.4,-0.2 c-8.2,0 -15.8,3.1 -22.9,7.2 c-11.1,6.6 -19.5,15.9 -27.8,25.6 c-25.2,29.4 -54.5,53.4 -92,65.7 c-11.8,3.9 -23.5,5.7 -34.9,5.7 c-20.9,0 -41.1,-6.1 -60.4,-17.2 c-25.1,-14.3 -36.5,-37.7 -38.2,-66.1 c-0.1,-2.3 -0.2,-4.7 -0.2,-7 c0,-4 0.1,-8.2 0.1,-12.5 H56.72862715721131 l0,0.1 L56.72862715721131,198.5285592556 h-0.1 c0,4.3 -0.1,8.4 -0.1,12.5 c0,2.4 0,4.7 0.2,7.1 c1.7000000000000002,28.4 13.1,51.9 38.3,66.3 c19.3,11 39.5,17.2 60.5,17.2 c11.4,0 23.1,-1.8 35,-5.7 c37.5,-12.3 66.9,-36.3 92.1,-65.8 c8.3,-9.7 16.7,-19.1 27.8,-25.6 c7.1,-4.2 14.6,-7.2 22.7,-7.2 c1.1,0 2.2,0.1 3.3,0.2 c14.6,1.5 29.3,2.6 43.6,5.7 c38.2,8.2 70.7,26.1 92.8,59.7 c1.6,2.4 4.9,3.8 7.9,3.8 c1.5,0 3,-0.4 4,-1.2 c2.1,-1.6 2.9,-3.5 2.8,-5.5 c0,-1.8 -0.6000000000000005,-3.6 -1.5,-5.1 c-3,-5.4 -6.6,-10.7 -10.5,-15.4 c-28.7,-34.4 -66.4,-51.8 -110,-57.4 c-9.6,-1.2 -16.9,-3.7 -23.7,-11.6 c-17.4,-20.3 -37.2,-38.2 -61.1,-50.8 c-12,-6.3 -24.1,-9.3 -36.2,-9.3 c-12,0 -23.9,2.9 -35.9,8.4 c-18.6,8.5 -31.5,23.4 -44.3,38.9 c-22.4,27.1 -49.4,43.4 -83.6,43.4 c-7.6,0 -15.5,-0.8 -23.8,-2.5 l-0.1,0 v0.2 H56.72862715721131 zM293.0286271572113,168.22855925559998 h0.1 v0 c0,-4.3 -1.7000000000000002,-8.2 -4.4,-10.9 c-2.7,-2.8 -6.6,-4.4 -10.9,-4.4 l-0.2,0 c-8.4,0.1 -15,6.8 -15.1,15.2 l0,0.1 c0,4.3 1.7000000000000002,8.1 4.4,10.9 c2.7,2.8 6.6,4.4 10.8,4.4 l0.2,0 c8.5,-0.1 15,-6.8 15.1,-15.3 L293.0286271572113,168.22855925559998 l-0.1,0 c0,8.4 -6.5,14.9 -14.8,15 l-0.2,0 c-8.4,0 -15,-6.6 -15,-15.1 l0,-0.1 c0,-8.3 6.6,-14.9 14.8,-15 l0.2,0 c8.5,0 15,6.6 15,15.1 v0 H293.0286271572113 z" id="svg_4"/>
	<path class="st0" d="M293.0286271572113,168.22855925559998 c0,8.4 -6.5,15 -14.9,15.1 c-8.6,0.1 -15.4,-6.7 -15.3,-15.3 c0,-8.4 6.6,-15 15,-15.1 C286.4286271572113,152.92855925559996 293.0286271572113,159.5285592556 293.0286271572113,168.22855925559998 z" id="svg_5"/>
	<path d="M293.0286271572113,168.22855925559998 l-0.1,0 c0,8.4 -6.5,14.9 -14.8,15 l-0.2,0 c-8.4,0 -15,-6.6 -15,-15.1 l0,-0.1 c0,-8.3 6.6,-14.9 14.8,-15 l0.2,0 c8.5,0 15,6.6 15,15.1 l0,0 L293.0286271572113,168.22855925559998 l0.1,0 l0,0 c0,-4.3 -1.7000000000000002,-8.2 -4.4,-10.9 c-2.7,-2.8 -6.6,-4.4 -10.9,-4.4 l-0.2,0 c-8.4,0.1 -15,6.8 -15.1,15.2 l0,0.1 c0,4.3 1.7000000000000002,8.1 4.4,10.9 c2.7,2.8 6.6,4.4 10.8,4.4 l0.2,0 c8.5,-0.1 15,-6.8 15.1,-15.3 L293.0286271572113,168.22855925559998 z" id="svg_6"/>
</g></g></svg>