<svg xmlns="http://www.w3.org/2000/svg" xmlns:xlink="http://www.w3.org/1999/xlink" version="1.1" focusable="false" style="enable-background:new 0 0 512 512;" xml:space="preserve" width="378" height="60"><rect id="backgroundrect" width="100%" height="100%" x="0" y="0" fill="none" stroke="none" class="" style=""/>
<style type="text/css">
	.st0{fill:#1E342E;}
	.st1{fill:#A4A69E;}
</style>





<g class="currentLayer" style=""><title>Layer 1</title><polygon class="st0" points="31.300003051757812,0 40.900001525878906,19.5 62.50000762939453,22.699996948242188 46.900001525878906,37.900001525878906 50.599998474121094,59.400001525878906 31.300003051757812,49.29999542236328 12,59.400001525878906 15.599998474121094,37.900001525878906 0,22.699996948242188 21.599998474121094,19.5 " id="svg_1"/><polygon class="st0" points="109.70000457763672,0 119.4000015258789,19.5 141.00000762939453,22.699996948242188 125.29999542236328,37.900001525878906 129.00000762939453,59.400001525878906 109.70000457763672,49.29999542236328 90.4000015258789,59.400001525878906 94.0999984741211,37.900001525878906 78.50000762939453,22.699996948242188 100.0999984741211,19.5 " id="svg_2"/><polygon class="st0" points="188.19998931884766,0 197.79999542236328,19.5 219.4000015258789,22.699996948242188 203.79999542236328,37.900001525878906 207.50000762939453,59.400001525878906 188.19998931884766,49.29999542236328 168.79999542236328,59.400001525878906 172.50000762939453,37.900001525878906 156.9000015258789,22.699996948242188 178.50000762939453,19.5 " id="svg_3"/><polygon class="st0" points="266.60001373291016,0 276.2999954223633,19.5 297.7999954223633,22.699996948242188 282.19998931884766,37.900001525878906 285.9000015258789,59.400001525878906 266.60001373291016,49.29999542236328 247.29999542236328,59.400001525878906 251.00000762939453,37.900001525878906 235.4000015258789,22.699996948242188 256.9000015258789,19.5 " id="svg_4"/><polygon class="st1" points="345.00000762939453,0 354.69998931884766,19.5 376.2999954223633,22.699996948242188 360.69998931884766,37.900001525878906 364.4000015258789,59.400001525878906 345.00000762939453,49.29999542236328 325.69998931884766,59.400001525878906 329.4000015258789,37.900001525878906 313.7999954223633,22.699996948242188 335.4000015258789,19.5 " id="svg_5"/></g></svg>