<svg xmlns="http://www.w3.org/2000/svg" xmlns:xlink="http://www.w3.org/1999/xlink" version="1.1" style="enable-background:new 0 0 595.3 841.9;" xml:space="preserve" width="378" height="416"><rect id="backgroundrect" width="100%" height="100%" x="0" y="0" fill="none" stroke="none"/>
<style type="text/css">
	.st0{fill:#BF8146;}
</style>

<g class="currentLayer" style=""><title>Layer 1</title><g id="svg_1" class="">
	<path class="st0" d="M69.26128997802735,196.2198944091797 c17.5,0.2 28.6,10.6 38.1,22.7 c19.7,25 34.1,53 41.1,84 c3.1,13.6 2.1,28.1 2.9,42.2 c0.1,1.3 0,2.6 0,4.2 c1.3,0.2 2.4,0.5 3.5,0.6000000000000001 c4,0.2 5.6,2.5 5.6,6.2 c0,18 0,36 0,54 c0,4 -2.1,6 -6.3,6 c-40,0 -80,0 -120,0 c-4.4,0 -6.4,-2.1 -6.4,-6.4 c0,-17.8 0,-35.7 0,-53.5 c0,-4.3 2.1,-6.5 6.4,-6.4 c4,0 7.9,0 12.4,0 c0.2,-11.9 -1.8,-23.1 -7.4,-33 c-5.8,-10.2 -12.8,-19.8 -19.7,-29.4 c-9.6,-13.3 -17.7,-27.5 -19,-43.9 c-1.1,-13.1 -0.1,-26.6 1.6,-39.8 c3.5,-27.8 9.5,-55.1 20.1,-81.1 c3,-7.5 7,-14.8 11.7,-21.3 c8.1,-11.2 21.1,-11.6 31,-1.8 c9.4,9.3 13.2,20.9 13.7,33.8 c0.7000000000000001,19.8 -2.8,39.1 -8,58.1 C70.16128997802736,192.91989440917968 69.86128997802734,194.2198944091797 69.26128997802735,196.2198944091797 zM141.66128997802736,349.41989440917973 c-0.1,-21.9 0.4,-43.1 -8,-63.4 c-10,-24.1 -20.9,-47.6 -39.1,-66.7 c-4.9,-5.1 -11.3,-9.3 -17.9,-12.1 c-7.9,-3.4 -13.7,1.4 -13,9.9 c0.4,5 1.4,10.4 3.7,14.9 c7.5,14.4 15.7,28.5 23.7,42.7 c1.7000000000000002,3 3,6 -0.5,8.3 c-3.2,2.1 -5.7,0.2 -7.4,-2.7 c-7.6,-13.1 -15.5,-26 -22.7,-39.3 c-7.4,-13.9 -8.1,-27.9 -2.3,-43.2 c7.9,-20.8 11.4,-42.7 10.5,-65.1 c-0.4,-9.4 -3.3,-18 -9.8,-25 c-6.8,-7.3 -13.6,-7 -18.8,1.5 c-4.4,7.3 -8.3,15.2 -11.3,23.2 c-9.3,25 -15.1,51 -17.8,77.5 c-1.3,12.9 -1.6,26.4 0.30000000000000004,39.2 c2.3,15 11.3,27.5 20.6,39.4 c9.3,11.8 17.8,24.2 21.3,39.1 c1.7000000000000002,7.2 2.6,14.6 4,22 C85.26128997802735,349.41989440917973 113.16128997802736,349.41989440917973 141.66128997802736,349.41989440917973 zM37.861289978027344,406.11989440917966 c37.8,0 75.2,0 112.6,0 c0,-15.6 0,-30.9 0,-46.4 c-37.6,0 -75,0 -112.6,0 C37.861289978027344,375.2198944091797 37.861289978027344,390.51989440917964 37.861289978027344,406.11989440917966 z" id="svg_2"/>
	<path class="st0" d="M330.56128997802733,350.01989440917964 c4.5,0 8.5,0.1 12.5,0 c4.3,-0.1 6.5,2 6.5,6.3 c0,17.8 0,35.7 0,53.5 c0,4.2 -1.9,6.4 -6.4,6.4 c-40,0 -80,0 -120,0 c-4.5,0 -6.3,-2.3 -6.3,-6.5 c0,-17.8 0,-35.7 0,-53.5 c0,-5.9 4,-6.6 9.7,-6.3 c0,-8.3 0.2,-16.3 0,-24.2 c-0.6000000000000001,-18.6 4.8,-35.8 12.1,-52.5 c9.4,-21.6 20.3,-42.3 36.3,-59.9 c8.8,-9.6 18.8,-17 32.9,-17.1 c-1.9,-8.3 -4.1,-16.3 -5.5,-24.3 c-3.1,-17.1 -5.5,-34.2 -1.4,-51.5 c2,-8.3 6.2,-15.4 12.4,-21.2 c9.6,-9 22.4,-8.6 29.9,2 c5.6,8.1 10.3,17.1 13.8,26.3 c11.8,31 17.7,63.3 20.6,96.2 c2.1,24 -5.7,44.8 -19.6,63.8 c-6.9,9.5 -13.9,19.1 -19.8,29.4 C332.56128997802733,326.7198944091797 330.7612899780273,337.8198944091797 330.56128997802733,350.01989440917964 zM320.66128997802736,349.3198944091797 c1,-17.6 5.4,-33.8 15.3,-48.1 c4.8,-7 10.1,-13.7 15,-20.6 c11.6,-16.1 18.3,-33.6 17,-54 c-1.8,-26.4 -6.5,-52.1 -13.8,-77.4 c-4,-13.9 -8.4,-27.7 -16.6,-39.9 c-6,-8.9 -12.8,-9.2 -19.8,-0.9 c-6,7 -8.7,15.2 -9,24.3 c-0.8,23.4 3.7,46 11.3,68 c2.4,6.9 4.7,13.8 3.1,21.4 c-4.8,22.4 -17.6,40.7 -30,59.2 c-0.9,1.3 -4.7,1.8 -6.3,1.1 c-1.2,-0.5 -1.4,-3.9 -1.4,-6 c0,-1.1 1.3,-2.2 2,-3.4 c6.5,-11.2 13.6,-22.1 19.4,-33.7 c3.4,-6.9 5.8,-14.6 6.9,-22.2 c1.3,-8.7 -4.7,-13.1 -13.2,-10.1 c-4.1,1.4 -8.2,3.8 -11.6,6.6 c-11,8.8 -18.6,20.4 -25.7,32.3 c-18,30.3 -30.3,62.2 -27.4,98.3 c0.1,1.6 0.2,3.3 0.2,5.1 C264.06128997802733,349.3198944091797 292.06128997802733,349.3198944091797 320.66128997802736,349.3198944091797 zM339.46128997802737,406.3198944091797 c0,-15.8 0,-31 0,-46.5 c-37.6,0 -75,0 -112.5,0 c0,15.7 0,31 0,46.5 C264.56128997802733,406.3198944091797 301.7612899780273,406.3198944091797 339.46128997802737,406.3198944091797 z" id="svg_3"/>
	<path class="st0" d="M187.86128997802734,24.719894409179688 c6.2,-6.3 11.3,-13.5 18.1,-18.1 c25.2,-16.6 60.5,-0.30000000000000004 66.6,30.2 c3.9,19.5 -1.6,37.1 -13,52.7 c-6.5,9 -14,17.4 -21.8,25.3 c-14.4,14.6 -29.3,28.7 -44,43 c-4.2,4.1 -5.9,4.3 -9.6,0.6000000000000001 c-17.9,-17.6 -36.1,-35.1 -53.7,-53 c-11.9,-12.1 -21.4,-25.9 -25.2,-43 c-3.1,-13.8 -2.3,-27 4.9,-39.6 c15.6,-27.3 56.8,-32.6 75.5,-1.6 C186.46128997802737,22.719894409179688 187.36128997802734,24.0198944091797 187.86128997802734,24.719894409179688 zM187.86128997802734,150.0198944091797 c16.9,-16.5 33.1,-31.4 48.3,-47.3 c8,-8.3 15.2,-17.8 20.9,-27.8 c7.7,-13.4 10,-28.3 3.7,-43.2 c-5.3,-12.4 -14.8,-19.9 -28.4,-21.5 c-14.4,-1.7000000000000002 -25.2,4.2 -32.6,16.5 c-2.3,3.8 -4.3,7.9 -6.5,11.8 c-2.4,4.1 -6.6,4.1 -9.1,0.1 c-1.1,-1.8 -1.7000000000000002,-4 -3,-5.7 c-4.4,-5.8 -8.1,-12.5 -13.6,-17 c-9.8,-7.9 -21.4,-7.8 -32.6,-2.9 c-12.8,5.6 -19.8,16 -21.3,29.7 c-1.8,16.1 2.7,31 13.1,42.8 C146.26128997802732,107.5198944091797 167.16128997802736,128.3198944091797 187.86128997802734,150.0198944091797 z" id="svg_4"/>
	<path class="st0" d="M66.36128997802734,384.3198944091797 c-1.8,1.2 -3.9,3.5 -5.5,3.2 c-1.7000000000000002,-0.30000000000000004 -3.9,-3 -4,-4.9 c-0.1,-1.3 2.7,-4 4.3,-4 c1.8,0 3.5,2.2 5.3,3.5 C66.46128997802734,382.8198944091797 66.36128997802734,383.51989440917964 66.36128997802734,384.3198944091797 z" id="svg_5"/>
	<path class="st0" d="M317.06128997802733,377.61989440917966 c1.2,1.8 3.5,3.6 3.4,5.4 c0,1.6 -2.5,3.2 -3.9,4.8 c-1.7000000000000002,-1.5 -4.4,-2.7 -4.7,-4.5 c-0.30000000000000004,-1.6 1.9,-3.7 2.9,-5.6 C315.66128997802736,377.61989440917966 316.36128997802734,377.61989440917966 317.06128997802733,377.61989440917966 z" id="svg_6"/>
</g></g></svg>