<svg xmlns="http://www.w3.org/2000/svg" xmlns:xlink="http://www.w3.org/1999/xlink" version="1.1" style="" xml:space="preserve" width="488" height="552"><rect id="backgroundrect" width="100%" height="100%" x="0" y="0" fill="none" stroke="none"/>
<style type="text/css">
	.st0{fill:#BF8145;}
</style>

<g class="currentLayer" style=""><title>Layer 1</title><g id="svg_1" class="">
	<path class="st0" d="M104.32810440063477,209.91734008789064 c4.4,0.1 7.6,-3.3 7.7,-8.6 c0.2,-10.2 2.1,-20.1 8.5,-28.1 c4.3,-5.3 9.9,-9.7 15.4,-13.8 c5,-3.7 6.9,-7.2 4.7,-11.5 c-2.4,-4.5 -6.7,-5.3 -12.4,-2.1 c-13.2,7.2 -22.2,18.1 -29.2,35.2 c-0.5,4.4 -1.7000000000000002,12.1 -2.3,19.8 C96.22810440063478,206.41734008789064 99.52810440063476,209.8173400878906 104.32810440063477,209.91734008789064 z" id="svg_2"/>
	<path class="st0" d="M129.62810440063475,210.21734008789065 c1,4.6 4.8,7.3 9,6.6 c4,-0.7000000000000001 6.9,-4.3 6.1,-8.9 c-1.8,-10.9 2.5,-19.4 9.6,-27.1 c0.5,-0.5 1,-0.9 1.4,-1.4 c3.2,-3.7 3.2,-8 0.1,-11.2 c-3.1,-3.1 -7.9,-3.3 -11.1,0.4 c-5.1,6 -11.8,11.3 -14.4,18.8 C128.32810440063477,193.61734008789062 128.02810440063476,202.71734008789065 129.62810440063475,210.21734008789065 z" id="svg_3"/>
	<path class="st0" d="M479.7281044006347,71.71734008789062 c-22,-7.5 -44.1,-14.6 -66.2,-21.7 c-27.7,-9 -55.5,-17.5 -83.1,-26.9 c-14.3,-4.9 -28.5,-8.6 -43.7,-9 c-13.1,-0.30000000000000004 -26.3,-1 -39.2,-3.3 c-11.2,-2.1 -22,-6.6 -33,-10.1 c-5.1,-1.6 -7.5,-0.7000000000000001 -9.2,4.5 c-6.1,18.1 -12.3,36.3 -18.2,54.5 c-9.3,28.4 -18.4,56.9 -27.7,85.4 c-2.3,7 -1.6,9.3 5.6,11.3 c21.5,6 41.5,14.9 59.7,28 c10.3,7.4 21.1,14.3 33.6,18.2 c30.7,9.5 61.2,19.7 91.7,29.6 c23.5,7.7 46.9,15.6 70.5,23 c3.2,1 7.1,-0.30000000000000004 10.8,-0.6000000000000001 c1.7000000000000002,-2.9 3.2,-4.9 4,-7.2 c2.6,-7.6 5,-15.4 7.5,-23 c8.1,-24.9 16.3,-49.9 24.4,-74.8 c6.8,-21.1 13.4,-42.3 20.5,-63.3 C490.0281044006348,79.11734008789062 485.6281044006348,73.71734008789062 479.7281044006347,71.71734008789062 zM183.72810440063478,150.5173400878906 c-3.9,-1.2 -7.7,-2.5 -12.1,-3.9 c14.5,-44.5 29,-88.8 43.6,-133.6 c8.1,2.6 15.6,5.1 24.1,7.8 c-14.4,44.2 -28.8,88.4 -43.4,133.4 C191.72810440063478,152.91734008789064 187.72810440063478,151.71734008789065 183.72810440063478,150.5173400878906 zM423.42810440063477,244.11734008789062 c-24,-7.8 -47.5,-15.3 -71,-23 c-28,-9.1 -55.9,-18.7 -84.1,-27.1 c-16.4,-4.9 -29.9,-14.4 -43.9,-23.3 c-4.7,-3 -9.2,-6.3 -14.1,-9 c-2.6,-1.5 -3.2,-2.9 -2.2,-5.7 c11.2,-33.9 22.4,-67.9 33.5,-101.9 c3.3,-10.1 6.4,-20.3 9.7,-30.8 c17.9,1.2 36.1,1.4 54,3.9 c11.2,1.6 21.8,6.7 32.7,10.2 c30.6,9.9 61.2,19.8 91.7,29.8 c14.9,4.8 29.7,9.8 44.6,14.7 c0.6000000000000001,0.2 1.1,0.7000000000000001 1.6,1.1 C458.5281044006348,136.71734008789065 441.0281044006348,190.3173400878906 423.42810440063477,244.11734008789062 z" id="svg_4"/>
	<path class="st0" d="M369.42810440063477,113.31734008789061 c-0.30000000000000004,0.6000000000000001 -0.7000000000000001,1.2 -1.4,1.6 c-1.1,0.6000000000000001 -2.2,0.5 -3.3,0.1 c-5.4,-2.2 -10.9,-4.4 -16.3,-6.6 c-8,-3.2 -16.1,-6.5 -24.1,-9.7 c0,0 0,0 0,0.1 c0,0.1 0,0.1 0,0.2 c-0.7000000000000001,4.3 -1.4,8.6 -2.1,12.9 c0,0.2 -0.2,0.5 0.1,0.6000000000000001 c0.4,0.1 0.30000000000000004,-0.2 0.4,-0.4 c0.5,-1.2 1.5,-1.8 2.6,-1.7000000000000002 c0.4,0 0.8,0.1 1.2,0.30000000000000004 c3.2,1.3 6.3,2.5 9.5,3.8 c0.1,0 0.2,0.1 0.4,0.2 c-0.2,0.1 -0.30000000000000004,0.2 -0.4,0.30000000000000004 c-1.2,0.9 -2.1,2.1 -2.9,3.4 c-0.9,1.7000000000000002 -1.5,3.5 -1.9,5.4 c-1.1,5.8 0.4,10.9 4.5,15.1 c2.3,2.4 5.2,4 8.3,5.1 c2,0.7000000000000001 4,1.1 6.1,1.2 c2.4,0.1 4.7,-0.30000000000000004 6.9,-1.4 c3.4,-1.8 5.4,-4.7 6.4,-8.4 c0.7000000000000001,-2.6 0.5,-5.2 -0.30000000000000004,-7.8 c-0.30000000000000004,-0.8 -0.5,-1.6 -0.8,-2.4 c0.1,0 0.1,0 0.2,0 c0.9,0.2 1.7000000000000002,0.4 2.6,0.6000000000000001 c0.8,0.1 1.7000000000000002,0 2.4,-0.6000000000000001 c0.2,-0.1 0.30000000000000004,-0.30000000000000004 0.30000000000000004,-0.5 c0.30000000000000004,-1.5 0.5,-2.9 0.7000000000000001,-4.4 c0.4,-2.2 0.7000000000000001,-4.5 1.1,-6.7 c0,-0.1 -0.1,-0.30000000000000004 -0.1,-0.4 C369.62810440063475,113.11734008789062 369.5281044006348,113.21734008789065 369.42810440063477,113.31734008789061 zM359.82810440063474,132.21734008789065 c-1.1,1.4 -2.7,2.1 -4.4,2.4 c-1.8,0.30000000000000004 -3.6,0.1 -5.4,-0.30000000000000004 c-2.6,-0.6000000000000001 -5.1,-1.5 -7.5,-2.7 c-2.4,-1.2 -4.6,-2.6 -6.4,-4.6 c-1,-1.1 -1.8,-2.4 -2,-4 c-0.30000000000000004,-1.9 0,-3.6 1.3,-5.1 c1.1,-1.3 2.6,-1.6 4.2,-1.6 c1,0 1.9,0.2 2.8,0.6000000000000001 c3,1.2 5.9,2.4 8.9,3.6 c3.2,1.3 6.4,2.6 9.5,3.9 c0.2,0.1 0.30000000000000004,0.2 0.4,0.30000000000000004 C361.92810440063477,127.41734008789064 361.5281044006348,129.91734008789064 359.82810440063474,132.21734008789065 z" id="svg_5"/>
	<path class="st0" d="M337.62810440063475,146.11734008789062 c-4.4,-1 -8.5,-0.4 -12.4,2 c-3.1,1.8 -5.4,4.4 -7,7.6 c-1.7000000000000002,3.4 -2.5,6.9 -2.2,10.6 c0.5,5.6 3.1,9.9 7.8,13 c0.6000000000000001,0.4 1.2,0.7000000000000001 1.8,1 c0.8,0.30000000000000004 1.5,0.6000000000000001 2.3,0.9 c0.6000000000000001,0.2 1.2,0.30000000000000004 1.8,0.5 c5.6,1.1 10.6,-0.1 14.9,-4 c3.6,-3.2 5.7,-7.4 6.4,-12.1 c0.7000000000000001,-4.7 -0.2,-9.1 -3.1,-12.9 C345.32810440063474,149.21734008789065 341.82810440063474,147.11734008789062 337.62810440063475,146.11734008789062 zM344.7281044006348,173.21734008789065 c-1.8,0.5 -3.6,0.4 -5.4,0.2 c-2.1,-0.30000000000000004 -4.2,-0.9 -6.2,-1.6 c-0.8,-0.30000000000000004 -1.6,-0.6000000000000001 -2.4,-1 c-2.8,-1.1 -5.5,-2.3 -7.9,-4.1 c-1.5,-1.1 -2.9,-2.3 -3.8,-3.9 c-0.9,-1.5 -1.1,-3.1 -0.5,-4.8 c0.6000000000000001,-1.7000000000000002 1.9,-2.8 3.6,-3.3 c1.8,-0.6000000000000001 3.7,-0.6000000000000001 5.6,-0.30000000000000004 c2.4,0.30000000000000004 4.8,1 7.1,1.9 c1.9,0.8 3.9,1.6 5.7,2.5 c2.4,1.2 4.7,2.7 6.5,4.8 c1,1.2 1.7000000000000002,2.4 1.8,4 C349.12810440063475,170.21734008789065 347.42810440063477,172.5173400878906 344.7281044006348,173.21734008789065 z" id="svg_6"/>
	<path class="st0" d="M376.82810440063474,80.81734008789061 c-0.1,-0.1 -0.2,-0.1 -0.30000000000000004,-0.2 c0,0.1 -0.1,0.30000000000000004 -0.1,0.4 c0,0.2 0.1,0.4 0.1,0.6000000000000001 c1,4 0.4,7.8 -1.6,11.3 c-1.2,2.1 -3,3.5 -5.4,4.2 c-2.8,0.9 -5.6,0.5 -8.3,-0.2 c-0.2,-0.1 -0.2,-0.2 -0.2,-0.4 c-0.1,-2.5 0.6000000000000001,-4.8 1.7000000000000002,-7 c1,-1.9 2.1,-3.8 3.2,-5.8 c0.8,-1.4 1.5,-2.9 1.9,-4.5 c0.2,-0.8 0.30000000000000004,-1.6 0.2,-2.4 c0,-0.30000000000000004 -0.2,-0.5 -0.4,-0.6000000000000001 c-0.2,-0.1 -0.4,-0.2 -0.7000000000000001,-0.30000000000000004 c-0.1,0 -0.2,-0.1 -0.30000000000000004,-0.1 c-0.1,0 -0.2,0 -0.30000000000000004,-0.1 c-1.4,-0.6000000000000001 -2.9,-0.9 -4.5,-1 c-4.6,-0.4 -8.6,1 -11.8,4.5 c-2.1,2.3 -3.3,5.1 -4,8.2 c-1.1,5.5 0.2,10.4 4,14.4 c3.4,3.6 7.8,5.7 12.7,6.2 c4.4,0.5 8.4,-0.7000000000000001 11.7,-3.7 c3.3,-3 5,-7 5.7,-11.4 c0.6000000000000001,-4.1 -0.4,-7.9 -2.7,-11.3 C377.32810440063474,81.41734008789064 377.12810440063475,81.11734008789062 376.82810440063474,80.81734008789061 zM357.42810440063477,95.51734008789063 c-1.4,-0.7000000000000001 -2.8,-1.4 -4.2,-2.2 c-1.7000000000000002,-1 -3.3,-2.1 -4.5,-3.7 c-1.6,-2.1 -1,-4.5 0.30000000000000004,-5.9 c0.9,-1 2.1,-1.2 3.3,-1.3 c1.4,-0.1 2.7,0.2 4,0.5 c2.1,0.5 4.2,1.3 6.3,2.1 c0.1,0 0.1,0.1 0.2,0.1 c-2.2,3.4 -3.6,7 -3,11.2 C359.0281044006348,96.21734008789062 358.2281044006348,95.91734008789064 357.42810440063477,95.51734008789063 z" id="svg_7"/>
	<path class="st0" d="M211.72810440063478,233.21734008789065 c-68.4,0 -136.8,0 -205.3,0 c-4.6,0 -6.7,1.8 -6.4,5.9 c0.4,5.8 1,11.7 1.6,17.5 c1.5,15.3 3.1,30.7 4.6,46 c1.5,15.1 2.9,30.3 4.4,45.4 c1.7000000000000002,17.5 3.6,35 5.3,52.4 c1.8,17.7 3.5,35.4 5.3,53.1 c1.5,15.1 3,30.3 4.6,45.4 c1.6,15.7 3.2,31.5 4.7,47.2 c0.2,2.6 1.4,4.4 3.7,5.9 c49.9,0 99.8,0 149.7,0 c2.3,-1.4 3.6,-3.2 3.7,-5.9 c0.2,-4.7 0.9,-9.4 1.4,-14.1 c1.6,-15.6 3.1,-31.3 4.7,-46.9 c1.3,-12.7 2.5,-25.4 3.8,-38 c1.5,-15.3 3.1,-30.7 4.6,-46 c1.5,-14.9 2.9,-29.9 4.4,-44.8 c1.5,-15.5 3.1,-31.1 4.7,-46.6 c1.3,-12.8 2.6,-25.6 3.9,-38.3 c1.1,-10.7 2.2,-21.5 3.1,-32.2 C218.42810440063477,235.0173400878906 216.32810440063474,233.21734008789065 211.72810440063478,233.21734008789065 zM176.62810440063475,541.9173400878906 c-45,0 -89.9,0 -135.2,0 C36.428104400634766,491.21734008789065 31.428104400634766,440.6173400878906 26.228104400634763,389.1173400878906 c5.2,1.1 9.8,1.8 14.2,3 c7.3,2 14.4,4.9 21.8,6.4 c16,3.4 31.9,2.6 47.2,-3 c11.3,-4.2 22.8,-7.2 35.1,-5.6 c5.5,0.7000000000000001 11.1,2 16.3,3.9 c9.5,3.4 19.2,6.3 29.9,6.6 C186.02810440063476,447.6173400878906 181.32810440063477,494.71734008789065 176.62810440063475,541.9173400878906 zM191.72810440063478,389.71734008789065 c-8.5,-0.2 -16.2,-2 -23.6,-4.8 c-20.3,-7.5 -40.8,-7.5 -61.1,0.1 c-8.9,3.3 -18.2,5.3 -27.8,4.8 c-6.3,-0.30000000000000004 -12.9,-0.8 -18.8,-2.7 c-11.4,-3.6 -22.6,-7.6 -35.1,-7.6 c-4.5,-45.6 -9,-90.8 -13.6,-136.2 c65,0 129.6,0 194.6,0 C201.5281044006348,292.1173400878906 196.62810440063475,340.8173400878906 191.72810440063478,389.71734008789065 z" id="svg_8"/>
</g></g></svg>