<svg xmlns="http://www.w3.org/2000/svg" xmlns:xlink="http://www.w3.org/1999/xlink" version="1.1" style="enable-background:new 0 0 595.3 841.9;" xml:space="preserve" width="475" height="458"><rect id="backgroundrect" width="100%" height="100%" x="0" y="0" fill="none" stroke="none"/>
<style type="text/css">
	.st0{fill:#BF8146;}
</style>

<g class="currentLayer" style=""><title>Layer 1</title><g id="svg_1" class="">
	<path class="st0" d="M237.49999847412107,154.2999969482422 c0.30000000000000004,0.6000000000000001 0.7000000000000001,1 1.2,1.4 c1,0.8 2.5,1.5 4.4,2 c34.8,9 69.5,18.1 104.3,27.2 c1.3,0.30000000000000004 2.4,0.5 3.4,0.5 c1.3,0 2.2,-0.30000000000000004 3,-0.7000000000000001 c0.8,-0.4 1.4,-1.1 2,-2.2 c0.4,-0.7000000000000001 0.8,-1.6 1.1,-2.8 c9.5,-34.8 18.9,-69.6 28.5,-104.5 c0.30000000000000004,-1.3 0.5,-2.4 0.5,-3.4 c0,-1 -0.2,-1.8 -0.5,-2.5 c-0.4,-0.7000000000000001 -0.9,-1.5 -1.9,-2.2 c-0.6000000000000001,-0.5 -1.2,-0.8 -1.8,-1 c-0.5,-0.2 -1.1,-0.30000000000000004 -1.6,-0.30000000000000004 c-0.7000000000000001,0 -1.5,0.1 -2.3,0.4 c-0.8,0.30000000000000004 -1.7000000000000002,0.7000000000000001 -2.7,1.3 c-6,3.6 -12.1,7 -18.5,10.7 l-2.1,1.2 l-1.3,-2 c-1.5,-2.4 -2.9,-4.5 -4.2,-6.6 c-9.8,-15.9 -19.5,-31.8 -29.4,-47.6 c-4.9,-7.8 -10.8,-13.6 -17.8,-17.4 c-7,-3.8 -15,-5.8 -24.3,-5.8 c-18.6,0 -37.2,0 -55.9,0 c-16.4,0 -32.7,0 -49.1,0 c-8.8,0 -16.5,1.9 -23,5.6 c-6.5,3.7 -12,9.3 -16.3,17 c-11.4,20.1 -22.6,40.4 -33.8,60.6 c-1.6,2.9 -2.4,5.6 -2.4,8 c0,2.2 0.6000000000000001,4.1 1.8,6 c1.2,1.8 3.1,3.6 5.8,5.1 c22.5,13 44.9,26.1 67.4,39 c3.4,2 6.4,2.9 8.9,2.9 c2.1,0 4,-0.6000000000000001 5.8,-1.9 c1.8,-1.3 3.6,-3.4 5.3,-6.3 c9.3,-16.5 18.6,-33.1 27.8,-49.6 c1.5,-2.6 3,-5.2 4.9,-8.4 l2.1,-3.7 l2.2,3.6 c10.8,17.9 21.1,35.1 31.7,52.9 l1.3,2.2 l-2.2,1.3 c-6.6,3.9 -12.6,7.5 -18.7,10.9 c-1.1,0.6000000000000001 -2.1,1.3 -2.8,2 c-0.7000000000000001,0.7000000000000001 -1.1,1.4 -1.4,2.2 c-0.2,0.5 -0.30000000000000004,1.1 -0.30000000000000004,1.8 c0,0.30000000000000004 0,0.7000000000000001 0.1,1 C236.8999984741211,153.09999694824216 237.19999847412112,153.6999969482422 237.49999847412107,154.2999969482422 zM219.5999984741211,64.79999694824218 c-0.5,0.9 -0.9,1.8 -1.4,2.8 c-11.2,19.9 -22.4,39.7 -33.5,59.6 c-0.5,0.9 -1.1,1.7000000000000002 -1.7000000000000002,2.4 c-0.7000000000000001,0.7000000000000001 -1.5,1.3 -2.4,1.7000000000000002 c-0.6000000000000001,0.2 -1.3,0.4 -2,0.4 c-0.8,0 -1.6,-0.2 -2.3,-0.4 c-0.7000000000000001,-0.30000000000000004 -1.5,-0.6000000000000001 -2.2,-1 c-20,-11.7 -40,-23.3 -60,-34.8 c-0.9,-0.5 -1.8,-1.1 -2.5,-1.8 c-0.7000000000000001,-0.7000000000000001 -1.3,-1.5 -1.7000000000000002,-2.5 c-0.2,-0.7000000000000001 -0.4,-1.4 -0.4,-2.1 c0,-0.8 0.2,-1.6 0.4,-2.4 c0.30000000000000004,-0.8 0.6000000000000001,-1.5 1,-2.3 c10.9,-19.2 21.3,-38.8 32.4,-58 c3,-5.2 7.2,-9.2 12,-11.9 c4.8,-2.6 10.1,-4 15.4,-4 c5.1,0 10.3,1.2 14.9,3.7 c4.6,2.5 8.8,6.2 11.9,11.1 c7.2,11.3 13.8,22.9 20.6,34.3 c0.6000000000000001,1 1,2 1.4,2.8 l0.6000000000000001,1.1 L219.5999984741211,64.79999694824218 zM260.8999984741211,146.2999969482422 c5.7,-3.5 10.5,-6.4 15.5,-9.5 c-24.1,-40.5 -48.2,-80.9 -72.7,-122 l-2.1,-3.5 l4.1,-0.2 c2.1,-0.1 3.7,-0.30000000000000004 5.4,-0.30000000000000004 c22.2,0 44.3,0 66.5,0 c7.2,0 13.6,1.5 19.2,4.7 c5.6,3.1 10.3,7.8 14,14 c12.5,20.5 25,41 37.4,61.4 c0.7000000000000001,1.1 1.4,2.2 2.1,3.4 c5,-2.8 9.8,-5.6 15.2,-8.7 l3.7,-2.1 v4.3 c0,1.3 0.1,2.3 0.1,3.4 c0,0.6000000000000001 0,1.3 -0.2,2.1 c-6.7,24.7 -13.4,49.4 -20.1,74.2 c-0.2,0.8 -0.5,1.6 -0.9,2.3 c-0.4,0.7000000000000001 -0.9,1.4 -1.5,1.9 c-0.4,0.30000000000000004 -0.9,0.6000000000000001 -1.5,0.8 c-0.7000000000000001,0.30000000000000004 -1.4,0.30000000000000004 -2.1,0.30000000000000004 c-1,0 -1.9,-0.2 -2.9,-0.4 c-24.4,-6.5 -48.9,-12.8 -73.4,-19.2 c-0.9,-0.2 -1.6,-0.5 -2.5,-0.9 c-0.9,-0.4 -1.8,-0.8 -3.2,-1.3 l-4.7,-1.8 L260.8999984741211,146.2999969482422 z" id="svg_2"/>
	<path class="st0" d="M6.799998474121097,312.2999969482422 c17.9,31.2 35.8,62.3 54.1,93.3 c4.1,6.9 9.2,12.1 15.2,15.6 c6,3.5 13.1,5.3 21.1,5.4 c10.3,0.1 20.6,0.2 30.8,0.2 c15.2,0 30.4,-0.1 45.6,-0.1 c4.1,0 7.3,-1.4 9.6,-3.6 c2.2,-2.2 3.6,-5.5 3.6,-9.6 c0,-14.5 0,-29 0,-43.6 c0,-11.8 0,-23.6 0,-35.4 c0,-2.9 -0.4,-5.3 -1.2,-7.2 c-0.8,-1.9 -1.8,-3.3 -3.2,-4.5 c-0.9,-0.7000000000000001 -2.1,-1.3 -3.4,-1.8 c-1.8,-0.6000000000000001 -4,-0.9 -6.6,-0.9 c-8.4,0 -16.7,0 -25.1,0 c-13.1,0 -26.3,0 -39.4,0 c-1.7000000000000002,0 -3.4,0 -6,0 h-4.3 l2.1,-3.7 c9.4,-16.4 18.2,-31.8 27.4,-47.7 l1.2,-2.2 l2.2,1.2 c6.6,3.8 12.7,7.2 18.8,10.7 c0.9,0.5 1.8,0.9 2.6,1.2 c0.8,0.30000000000000004 1.5,0.4 2.2,0.4 c0.6000000000000001,0 1.2,-0.1 1.7000000000000002,-0.30000000000000004 c0.6000000000000001,-0.2 1.2,-0.5 1.8,-1 c0.9,-0.7000000000000001 1.4,-1.4 1.7000000000000002,-2.1 c0.30000000000000004,-0.7000000000000001 0.5,-1.5 0.5,-2.5 c0,-1.1 -0.2,-2.3 -0.6000000000000001,-3.7 c-9.5,-34.1 -18.9,-68.3 -28.3,-102.4 c-0.5,-1.7000000000000002 -1,-3.1 -1.5,-4.1 c-0.5,-1 -1.1,-1.7000000000000002 -1.6,-2.2 c-0.4,-0.30000000000000004 -0.7000000000000001,-0.5 -1.1,-0.7000000000000001 c-0.6000000000000001,-0.2 -1.3,-0.4 -2.2,-0.4 c-1.3,0 -3.1,0.30000000000000004 -5.2,0.9 c-21.4,5.7 -42.8,11.3 -64.1,17 c-12.8,3.4 -25.7,6.9 -38.6,10.2 c-1.4,0.4 -2.6,0.9 -3.5,1.4 c-0.9,0.6000000000000001 -1.5,1.3 -2,2.1 c-0.30000000000000004,0.6000000000000001 -0.5,1.3 -0.6000000000000001,2.2 c0,0.30000000000000004 -0.1,0.7000000000000001 -0.1,1 c0,0.7000000000000001 0.1,1.2 0.30000000000000004,1.8 c0.2,0.5 0.5,1 0.8,1.5 c0.8,1 2,1.9 3.5,2.7 c5.2,2.8 10.2,5.8 15.2,8.7 c1.4,0.8 2.4,1.8 3.4,2.6 l1.7000000000000002,1.3 l-1.1,1.9 C24.9999984741211,232.1999969482422 15.599998474121094,248.1999969482422 6.599998474121094,264.2999969482422 c-4.5,8 -6.6,16 -6.6,23.9 C-0.0000015258789005656581,296.1999969482422 2.199998474121088,304.1999969482422 6.799998474121097,312.2999969482422 zM168.3999984741211,330.59999694824216 L168.3999984741211,330.59999694824216 c1.3,0 2.5,0.1 3.6,0.6000000000000001 c1.1,0.4 2.1,1.1 2.8,2.1 c0.5,0.6000000000000001 0.8,1.4 1,2.1 c0.30000000000000004,1 0.4,2 0.4,3.1 v0.1 v0 c0,11.7 -0.1,23.3 -0.1,35 c0,11.5 0,23 0.1,34.5 v0 v0 v0 c0,1.3 -0.2,2.6 -0.6000000000000001,3.7 c-0.4,1.1 -1.2,2.2 -2.2,2.9 c-0.7000000000000001,0.5 -1.4,0.8 -2.2,1 c-1,0.30000000000000004 -2.1,0.4 -3.2,0.4 l-0.2,0 c-5.3,-0.1 -10.5,-0.1 -15.8,-0.1 c-6.7,0 -13.4,0 -20.2,0 c-7,0 -14,0 -21,0 c-4.2,0 -8.4,0 -12.5,0 c-9.6,-0.1 -17.8,-3.7 -23.6,-9.4 c-5.8,-5.7 -9.1,-13.6 -9.1,-22 c0,-5.4 1.4,-10.9 4.3,-16.3 c6.1,-11.3 12.7,-22.4 19.3,-33.4 c0.6000000000000001,-1 1.3,-1.7000000000000002 2.2,-2.3 c0.8,-0.6000000000000001 1.8,-1.1 2.8,-1.4 c0.7000000000000001,-0.2 1.4,-0.4 2.1,-0.4 C120.3999984741211,330.49999694824214 144.3999984741211,330.59999694824216 168.3999984741211,330.59999694824216 zM16.199998474121088,268.9999969482422 c10.7,-18.8 21.5,-37.6 32.3,-56.3 c0.6000000000000001,-1.1 1.2,-2.2 1.9,-3.4 c-4.9,-2.9 -9.7,-5.8 -14.5,-8.6 l-1.6,-0.9 l0.4,-1.8 c0.1,-0.5 0.2,-0.9 0.30000000000000004,-1.4 l0.30000000000000004,-1.3 l1.3,-0.5 c1.7000000000000002,-0.6000000000000001 3.5,-1.4 5.6,-2 c23.6,-6.3 47.3,-12.5 70.9,-18.9 c1.2,-0.30000000000000004 2.4,-0.6000000000000001 3.6,-0.6000000000000001 c0.6000000000000001,0 1.1,0.1 1.7000000000000002,0.2 c0.6000000000000001,0.1 1.1,0.4 1.7000000000000002,0.7000000000000001 c1.1,0.7000000000000001 1.8,1.6 2.4,2.8 c0.4,0.8 0.7000000000000001,1.6 0.9,2.5 c6.4,23.9 13.1,47.7 19.7,71.6 c0.5,1.9 0.7000000000000001,3.7 0.9,5.3 l0.2,1.4 l-1.1,0.9 c-0.4,0.30000000000000004 -0.8,0.6000000000000001 -1.1,0.9 l-1.3,1.1 l-1.5,-0.8 c-4.8,-2.6 -9.5,-5.3 -14.7,-8.2 c-22.4,39.1 -44.8,78.1 -67.6,117.9 l-2.1,3.7 l-2.2,-3.7 c-2.9,-4.9 -5.6,-9.3 -8.1,-13.7 c-9.4,-16.3 -18.9,-32.5 -28.2,-48.9 c-3.5,-6.2 -5.4,-12.6 -5.4,-19 C10.699998474121088,281.6999969482422 12.599998474121094,275.2999969482422 16.199998474121088,268.9999969482422 z" id="svg_3"/>
	<path class="st0" d="M372.6999984741211,426.59999694824216 c9.3,-0.1 17.5,-2 24.6,-6 c7,-3.9 12.9,-9.8 17.7,-17.8 c18.2,-30.8 36,-61.8 53.8,-92.9 c4.2,-7.3 6.2,-14.6 6.2,-21.8 c0,-7.3 -2.1,-14.7 -6.4,-22.2 c-11.8,-20.7 -23.6,-41.3 -35.5,-61.9 c-1.7000000000000002,-3 -3.6,-5.1 -5.5,-6.5 c-1.9,-1.3 -3.8,-1.9 -6,-2 c-2.5,0 -5.5,0.9 -8.9,2.8 c-22.4,12.8 -44.8,25.7 -67.1,38.5 c-2.8,1.6 -4.8,3.4 -6.1,5.3 c-1.3,1.9 -1.9,3.8 -1.9,5.9 c0,2.5 0.8,5.3 2.7,8.5 c10.2,17.8 20.4,35.5 30.6,53.2 c1.1,1.9 2,3.9 3.1,5.9 l1.9,3.6 h-4.1 c-18.4,0 -36.3,0 -54.3,0 h-2.5 v-2.5 c0,-4.2 0,-8.3 0,-12.4 c0,-2.7 0,-5.4 0.1,-8.1 c0,-0.2 0,-0.4 0,-0.6000000000000001 c0,-1.5 -0.2,-2.8 -0.5,-3.8 c-0.30000000000000004,-1 -0.8,-1.8 -1.6,-2.5 c-0.5,-0.5 -1.2,-0.9 -2.1,-1.2 c-0.9,-0.30000000000000004 -1.6,-0.5 -2.2,-0.5 c-1,0 -1.9,0.30000000000000004 -2.9,0.9 c-1,0.6000000000000001 -2.1,1.6 -3.2,2.7 c-24.9,25.2 -49.9,50.4 -74.9,75.7 c-1.3,1.3 -2.2,2.5 -2.7,3.5 c-0.5,1 -0.7000000000000001,1.8 -0.7000000000000001,2.5 c0,0.7000000000000001 0.2,1.5 0.7000000000000001,2.5 c0.5,1 1.4,2.1 2.7,3.4 c25.1,25.3 50.2,50.7 75.2,76 c1.1,1.1 2.1,2 3.1,2.6 c1,0.6000000000000001 1.8,0.8 2.8,0.8 c0.7000000000000001,0 1.5,-0.1 2.4,-0.6000000000000001 c0.9,-0.4 1.5,-0.8 2,-1.3 c0.5,-0.5 0.8,-1 1.1,-1.6 c0.6000000000000001,-1.2 0.8,-2.8 0.8,-4.7 c0,-0.1 0,-0.30000000000000004 0,-0.4 c0,-2.8 -0.1,-5.5 -0.1,-8.3 c0,-4.1 0,-8.3 0,-12.7 v-2.5 h2.5 c11.6,0 23,0 34.1,0 C358.5999984741211,426.59999694824216 365.6999984741211,426.59999694824216 372.6999984741211,426.59999694824216 zM351.2999984741211,254.59999694824216 c-0.4,-0.7000000000000001 -0.7000000000000001,-1.4 -1,-2.1 c-0.2,-0.7000000000000001 -0.4,-1.5 -0.4,-2.3 c0,-0.6000000000000001 0.1,-1.3 0.30000000000000004,-1.9 c0.2,-0.6000000000000001 0.5,-1.2 0.9,-1.7000000000000002 c0.8,-1 1.8,-1.8 2.9,-2.4 c20.4,-11.6 40.8,-23.2 61.1,-34.9 c0.7000000000000001,-0.4 1.4,-0.7000000000000001 2.1,-1 c0.7000000000000001,-0.2 1.4,-0.4 2.2,-0.4 c0.7000000000000001,0 1.3,0.1 2,0.30000000000000004 c0.6000000000000001,0.2 1.2,0.6000000000000001 1.7000000000000002,1 c1,0.8 1.7000000000000002,1.8 2.4,2.9 c11.6,20.4 23.6,40.5 34.9,61.2 c2.6,4.8 3.8,9.9 3.8,14.8 c0,8.2 -3.3,15.9 -8.8,21.8 c-5.5,5.8 -13.3,9.7 -22.4,9.9 c-2.4,0.1 -4.9,0.1 -7.3,0.1 c-3.3,0 -6.5,0 -9.7,0 v0 h-2.5 c-3.6,0 -7.2,0.1 -10.8,0.1 c-2.9,0 -5.9,0 -8.8,-0.2 l0,0 c-1.1,-0.1 -2.1,-0.30000000000000004 -3.1,-0.8 c-1,-0.4 -2,-1 -2.8,-1.7000000000000002 c-0.6000000000000001,-0.5 -1.1,-1 -1.5,-1.8 C374.5999984741211,295.2999969482422 362.99999847412107,274.8999969482422 351.2999984741211,254.59999694824216 zM307.6999984741211,415.99999694824214 c-0.6000000000000001,0 -1.2,0 -1.8,0 c-0.6000000000000001,0 -1.2,0 -1.8,0 c0,5.7 0,11.3 0,17.9 v4.8 l-3.9,-2.8 c-1.1,-0.8 -2,-1.4 -2.8,-1.9 c-0.8,-0.5 -1.6,-1.1 -2.3,-1.8 c-17.8,-17.8 -35.4,-35.8 -53.2,-53.5 c-0.8,-0.8 -1.4,-1.6 -1.9,-2.5 c-0.5,-0.9 -0.8,-1.9 -0.8,-2.9 c0,-1.1 0.4,-2.2 0.9,-3.1 c0.5,-0.9 1.2,-1.7000000000000002 2,-2.5 c17.7,-17.7 35.2,-35.5 52.8,-53.2 c1.4,-1.4 2.8,-2.2 3.8,-3.1 l1.3,-1 l1.5,0.9 c0.5,0.30000000000000004 0.9,0.5 1.4,0.8 l1.2,0.7000000000000001 v1.4 c0,5.3 0,10.6 0,16.3 c45.3,0 90.2,0 136,0 h4.2 l-2,3.7 c-1.4,2.5 -2.3,4.2 -3.3,5.9 c-10.7,18.5 -21.4,36.8 -32,55.3 c-3.8,6.7 -8.6,11.9 -14.5,15.3 c-5.9,3.5 -12.7,5.2 -20.5,5.1 c-0.1,0 -0.2,0 -0.30000000000000004,0 c-7.9,0 -15.8,-0.1 -23.8,-0.1 C334.49999847412107,415.89999694824223 321.0999984741211,415.99999694824214 307.6999984741211,415.99999694824214 z" id="svg_4"/>
</g></g></svg>