<svg xmlns="http://www.w3.org/2000/svg" xmlns:xlink="http://www.w3.org/1999/xlink" version="1.1" style="enable-background:new 0 0 595.3 841.9;" xml:space="preserve" width="492" height="480"><rect id="backgroundrect" width="100%" height="100%" x="0" y="0" fill="none" stroke="none" class="" style=""/>
<style type="text/css">
	.st0{fill:#BF8146;}
</style>

<g class="currentLayer" style=""><title>Layer 1</title><g id="svg_1" class="">
	<path class="st0" d="M491.7000152587891,352.84449157714846 c-64.4,0 -128.3,0 -192.6,0 c0,26.4 0,52.3 0,79 c9.3,0 18.5,-0.1 27.8,0 c9.1,0.2 15.8,4.6 20.2,12.5 c1.2,2.1 2.4,4.6 2.4,7 c0.30000000000000004,9.3 0.1,18.6 0.1,28.2 c-69.2,0 -138.3,0 -207.6,0 c0,-9.7 -0.8,-19.4 0.2,-28.9 c1.2,-10.6 11.5,-18.6 22.2,-18.8 c9.2,-0.2 18.3,-0.1 27.5,-0.2 c0.1,0 0.2,-0.2 0.7000000000000001,-0.6000000000000001 c0,-25.7 0,-51.6 0,-77.9 c-64,0 -127.9,0 -192.6,0 c0,-2.2 0,-4 0,-5.7 c0,-103.8 0,-207.7 0,-311.5 c0,-19.8 16,-35.9 35.9,-35.9 c80.3,-0.1 160.7,0 241,0 c58.5,0 117,-0.1 175.5,0.2 c6.3,0 13.1,1.1 18.8,3.7 c13.6,6.2 20.5,17.5 20.5,32.7 c0,75.8 0,151.7 0,227.5 c0,27.7 0,55.3 0,83 C491.7000152587891,348.74449157714844 491.7000152587891,350.5444915771484 491.7000152587891,352.84449157714846 zM480.50001525878906,285.4444915771485 c0,-2.6 0,-4.9 0,-7.2 c0,-63.3 0,-126.6 0,-189.9 c0,-17.2 0.1,-34.3 0,-51.5 c-0.1,-12.4 -6.9,-21.7 -17.9,-24.6 c-3.6,-1 -7.6,-1.2 -11.4,-1.2 c-96.3,-0.1 -192.6,0 -288.9,0 c-41.3,0 -82.6,0 -124,0 c-16.4,0 -27.2,10.3 -27.2,26 c0,80.5 0,160.9 0,241.4 c0,2.3 0,4.6 0,7.1 C167.80001525878907,285.4444915771485 323.6000152587891,285.4444915771485 480.50001525878906,285.4444915771485 zM480.300015258789,297.1444915771484 c-156.6,0 -312.6,0 -468.7,0 c0,15.1 0,29.8 0,44.4 c156.5,0 312.5,0 468.7,0 C480.300015258789,326.6444915771484 480.300015258789,312.0444915771484 480.300015258789,297.1444915771484 zM204.10001525878906,431.4444915771485 c28.1,0 55.7,0 83.3,0 c0,-26.3 0,-52.2 0,-78.1 c-28,0 -55.7,0 -83.3,0 C204.10001525878906,379.5444915771484 204.10001525878906,405.34449157714846 204.10001525878906,431.4444915771485 zM338.90001525878904,468.6444915771484 c0,-4.1 0,-7.6 0,-11 c-0.1,-9.9 -4.9,-14.7 -14.8,-14.7 c-18.8,0 -37.6,0 -56.5,0 c-33.6,0 -67.3,0 -100.9,0 c-7,0 -12.5,3.4 -13.4,9.6 c-0.8,5.3 -0.2,10.8 -0.2,16.2 C215.20001525878905,468.6444915771484 276.70001525878905,468.6444915771484 338.90001525878904,468.6444915771484 z" id="svg_2"/>
	<path class="st0" d="M260.3000152587891,109.14449157714841 c3.7,1.7000000000000002 6.6,3 10,4.6 c-3.3,7.4 -6.4,14.5 -9.5,21.5 c0.2,0.2 0.5,0.30000000000000004 0.7000000000000001,0.5 c10.2,-8.4 20.4,-16.8 30.9,-25.5 c2.4,2.8 4.6,5.5 7.1,8.5 c-10.3,8.6 -20.4,17 -30.4,25.4 c0.1,0.30000000000000004 0.30000000000000004,0.6000000000000001 0.4,1 c7.3,-1.7000000000000002 14.6,-3.4 22.4,-5.3 c0.9,3.5 1.7000000000000002,6.8 2.7,10.7 c-19.7,4.8 -39.2,9.6 -59.7,14.7 C243.50001525878906,146.14449157714841 251.80001525878907,127.94449157714843 260.3000152587891,109.14449157714841 z" id="svg_3"/>
	<path class="st0" d="M235.80001525878907,221.64449157714841 c1,-10.2 1.9,-19.8 2.8,-29.9 c3.9,0.30000000000000004 7.3,0.5 11.1,0.8 c-1,10.2 -1.9,19.9 -2.9,30.2 C243.20001525878905,222.34449157714846 239.90001525878904,222.04449157714845 235.80001525878907,221.64449157714841 z" id="svg_4"/>
	<path class="st0" d="M181.80001525878907,144.14449157714841 c10.3,1 19.9,1.9 30.1,2.8 c-0.4,3.7 -0.7000000000000001,7.1 -1.1,11 c-10.1,-0.9 -19.8,-1.8 -30.1,-2.7 C181.10001525878906,151.54449157714845 181.40001525878907,148.14449157714841 181.80001525878907,144.14449157714841 z" id="svg_5"/>
	<path class="st0" d="M290.70001525878905,206.04449157714845 c-6.5,-7.8 -12.7,-15.3 -19.3,-23.3 c2.7,-2.4 5.3,-4.6 8.4,-7.3 c6.4,7.7 12.8,15.3 19.4,23.3 C296.40001525878904,201.24449157714844 293.70001525878905,203.54449157714845 290.70001525878905,206.04449157714845 z" id="svg_6"/>
	<path class="st0" d="M195.00001525878906,205.44449157714843 c-2.5,-3 -4.6,-5.5 -7.1,-8.6 c7.8,-6.5 15.4,-12.8 23.2,-19.3 c2.4,2.8 4.5,5.3 7.1,8.5 C210.70001525878905,192.44449157714843 203.10001525878906,198.74449157714844 195.00001525878906,205.44449157714843 z" id="svg_7"/>
	<path class="st0" d="M234.20001525878905,120.44449157714843 c-3,2.4 -5.6,4.6 -8.6,7 c-6.5,-7.8 -12.7,-15.3 -19.3,-23.2 c2.8,-2.4 5.4,-4.6 8.5,-7.2 C221.40001525878904,104.94449157714843 227.70001525878905,112.54449157714845 234.20001525878905,120.44449157714843 z" id="svg_8"/>
</g></g></svg>